<svg width="30" height="30" viewBox="0 0 30 30" fill="none" xmlns="http://www.w3.org/2000/svg">
<path d="M6.53333 23.8667H11.8667M22.5333 23.8787V23.8667M1.2 6.53335C1.2 2.12001 2.12 1.20001 6.53333 1.20001H22.5333C26.9467 1.20001 27.8667 2.12001 27.8667 6.53335V22.5333C27.8667 26.9467 26.9467 27.8667 22.5333 27.8667H6.53333C2.12 27.8667 1.2 26.9467 1.2 22.5333V6.53335Z" stroke="#101828" stroke-width="2.4" stroke-linecap="round" stroke-linejoin="round"/>
<path d="M14.5333 17.2C17.4788 17.2 19.8667 14.8122 19.8667 11.8667C19.8667 8.92114 17.4788 6.53333 14.5333 6.53333C11.5878 6.53333 9.2 8.92114 9.2 11.8667C9.2 14.8122 11.5878 17.2 14.5333 17.2Z" stroke="#101828" stroke-width="2.4" stroke-linecap="round" stroke-linejoin="round"/>
<path d="M19.2 11.8667H21.2M14.5333 16.5333V18.5333M9.86665 11.8667H7.86665M14.5333 7.20001V5.20001" stroke="#101828" stroke-width="2.4" stroke-linecap="round" stroke-linejoin="round"/>
</svg>
