<svg width="24" height="29" viewBox="0 0 24 29" fill="none" xmlns="http://www.w3.org/2000/svg">
<path fill-rule="evenodd" clip-rule="evenodd" d="M11.7413 0H11.592C9.14133 0 7.2 0 5.68133 0.204C4.11867 0.414667 2.85333 0.857333 1.85467 1.85467C0.857333 2.85333 0.414667 4.11867 0.204 5.68133C1.58946e-07 7.20133 0 9.14133 0 11.592V15.7413C0 18.192 1.58946e-07 20.1333 0.204 21.652C0.414667 23.2147 0.857333 24.48 1.85467 25.4787C2.468 26.0907 3.18 26.4933 4 26.7627V27.6667C4 28.2187 4.448 28.6667 5 28.6667H6.33333C6.59855 28.6667 6.8529 28.5613 7.04044 28.3738C7.22798 28.1862 7.33333 27.9319 7.33333 27.6667V27.272C8.54267 27.3333 9.95333 27.3333 11.592 27.3333H11.7413C13.3813 27.3333 14.7907 27.3333 16 27.272V27.6667C16 28.2187 16.448 28.6667 17 28.6667H18.3333C18.5986 28.6667 18.8529 28.5613 19.0404 28.3738C19.228 28.1862 19.3333 27.9319 19.3333 27.6667V26.7627C20.1533 26.4933 20.8667 26.0907 21.4787 25.4787C22.476 24.48 22.9187 23.2147 23.1293 21.652C23.3333 20.132 23.3333 18.192 23.3333 15.7413V11.5933C23.3333 9.14267 23.3333 7.20133 23.1293 5.68267C22.9187 4.12 22.476 2.85467 21.4787 1.856C20.48 0.858667 19.2147 0.416 17.652 0.205333C16.132 0.0013334 14.192 0.0013334 11.7413 0.0013334M3.26933 3.26933C3.83333 2.70533 4.60667 2.36667 5.948 2.18667C7.31867 2.00267 9.124 2 11.6667 2C14.2093 2 16.016 2.00267 17.3867 2.18667C18.7267 2.36667 19.5 2.70533 20.064 3.26933C20.628 3.83333 20.9667 4.60667 21.1467 5.948C21.3307 7.31867 21.3333 9.124 21.3333 11.6667V12.6667H2V11.6667C2 9.124 2.00267 7.31867 2.18667 5.94667C2.36667 4.60667 2.70533 3.83333 3.26933 3.26933ZM2 14.6667H21.3333V15.6667C21.3333 18.2093 21.3307 20.016 21.1467 21.3867C20.9667 22.7267 20.628 23.5 20.064 24.064C19.5 24.628 18.7267 24.9667 17.3853 25.1467C16.0147 25.3307 14.2093 25.3333 11.6667 25.3333C9.124 25.3333 7.31867 25.3307 5.94667 25.1467C4.60667 24.9667 3.83333 24.628 3.26933 24.064C2.70533 23.5 2.36667 22.7267 2.18667 21.3853C2.00267 20.016 2 18.2093 2 15.6667V14.6667Z" fill="#101828"/>
</svg>
