<svg xmlns="http://www.w3.org/2000/svg" style="display:none">
<symbol id="icon-logo" viewBox="0 0 136 16">

<path d="M135.393 7.18744H131.785C131.766 6.96491 131.688 6.77314 131.55 6.61216C131.413 6.45117 131.235 6.32807 131.018 6.24284C130.804 6.15288 130.568 6.1079 130.307 6.1079C129.971 6.1079 129.682 6.16945 129.441 6.29256C129.199 6.41566 129.081 6.59085 129.086 6.81813C129.081 6.97911 129.15 7.12826 129.292 7.26557C129.438 7.40288 129.72 7.50941 130.137 7.58517L132.353 7.9829C133.47 8.1865 134.301 8.52977 134.846 9.01273C135.395 9.49095 135.672 10.1325 135.677 10.9374C135.672 11.714 135.44 12.3887 134.981 12.9616C134.526 13.5298 133.903 13.9701 133.113 14.2826C132.327 14.5904 131.429 14.7443 130.421 14.7443C128.754 14.7443 127.45 14.4034 126.508 13.7215C125.57 13.0397 125.047 12.1401 124.938 11.0227H128.83C128.882 11.3683 129.053 11.6358 129.341 11.8252C129.635 12.0099 130.004 12.1022 130.449 12.1022C130.809 12.1022 131.105 12.0407 131.337 11.9176C131.574 11.7945 131.695 11.6193 131.699 11.392C131.695 11.1837 131.59 11.0179 131.387 10.8948C131.188 10.7717 130.875 10.6723 130.449 10.5965L128.518 10.2556C127.405 10.0615 126.572 9.69218 126.018 9.14767C125.464 8.60316 125.189 7.90241 125.194 7.0454C125.189 6.28782 125.388 5.64625 125.79 5.12068C126.197 4.59038 126.777 4.18792 127.53 3.9133C128.288 3.63394 129.185 3.49426 130.222 3.49426C131.799 3.49426 133.042 3.82097 133.951 4.47438C134.865 5.12778 135.345 6.03214 135.393 7.18744Z" fill="#475467"/>
<path d="M116.415 11.9602L116.443 7.30114H116.955L119.597 3.63636H124L119.568 9.34659H118.46L116.415 11.9602ZM112.892 14.5455V0H116.813V14.5455H112.892ZM119.625 14.5455L117.125 10.2273L119.682 7.44318L124.114 14.5455H119.625Z" fill="#475467"/>
<path d="M105.619 14.7443C104.435 14.7443 103.422 14.5099 102.579 14.0411C101.736 13.5677 101.09 12.9095 100.64 12.0667C100.19 11.2192 99.9654 10.2367 99.9654 9.11926C99.9654 8.00184 100.19 7.02172 100.64 6.17892C101.09 5.33138 101.736 4.67324 102.579 4.20449C103.422 3.731 104.435 3.49426 105.619 3.49426C106.689 3.49426 107.615 3.68839 108.396 4.07665C109.182 4.46017 109.79 5.00468 110.221 5.71017C110.652 6.41093 110.87 7.23479 110.875 8.18176H107.238C107.186 7.60885 107.02 7.17324 106.741 6.87494C106.466 6.57191 106.111 6.4204 105.676 6.4204C105.335 6.4204 105.036 6.51983 104.781 6.71869C104.525 6.91282 104.326 7.20875 104.184 7.60648C104.042 7.99947 103.971 8.49426 103.971 9.09085C103.971 9.68744 104.042 10.1846 104.184 10.5823C104.326 10.9753 104.525 11.2713 104.781 11.4701C105.036 11.6642 105.335 11.7613 105.676 11.7613C105.964 11.7613 106.22 11.695 106.443 11.5624C106.665 11.4251 106.845 11.2263 106.982 10.9659C107.125 10.7007 107.21 10.3787 107.238 9.99994H110.875C110.86 10.9611 110.64 11.7992 110.214 12.5141C109.788 13.2244 109.184 13.7736 108.403 14.1619C107.626 14.5501 106.698 14.7443 105.619 14.7443Z" fill="#475467"/>
<path d="M94.0487 9.77272V3.63635H97.9692V14.5454H94.2476V12.4716H94.1339C93.8972 13.1676 93.4829 13.7121 92.8911 14.1051C92.2992 14.4934 91.5961 14.6875 90.7817 14.6875C90.0194 14.6875 89.3517 14.5123 88.7788 14.1619C88.2106 13.8115 87.7679 13.3286 87.4507 12.7131C87.1382 12.0975 86.9796 11.392 86.9749 10.5966V3.63635H90.8953V9.77272C90.9 10.3125 91.0374 10.7363 91.3072 11.044C91.5819 11.3518 91.9654 11.5057 92.4578 11.5057C92.7845 11.5057 93.0662 11.437 93.303 11.2997C93.5445 11.1577 93.7291 10.9588 93.857 10.7031C93.9895 10.4427 94.0535 10.1326 94.0487 9.77272Z" fill="#475467"/>
<path d="M77.903 14.5454V3.63631H81.7098V5.71017H81.8234C82.0223 4.94313 82.3372 4.38205 82.768 4.02693C83.2036 3.67182 83.7126 3.49426 84.295 3.49426C84.4655 3.49426 84.6336 3.50847 84.7993 3.53688C84.9697 3.56055 85.1331 3.59606 85.2894 3.64341V6.98858C85.0952 6.92229 84.8561 6.87258 84.572 6.83943C84.2879 6.80629 84.0441 6.78972 83.8405 6.78972C83.457 6.78972 83.1113 6.87731 82.8036 7.0525C82.5005 7.22296 82.2614 7.46443 82.0862 7.77693C81.911 8.0847 81.8234 8.44691 81.8234 8.86358V14.5454H77.903Z" fill="#475467"/>
<path d="M64.4508 3.18182V0H77.0928V3.18182H72.7178V14.5455H68.8258V3.18182H64.4508Z" fill="#475467"/>
<path d="M62.5078 0V14.5455H58.5874V0H62.5078Z" fill="#101828"/>
<path d="M51.2467 14.7443C50.0819 14.7443 49.0781 14.5217 48.2353 14.0766C47.3972 13.6268 46.7509 12.9829 46.2964 12.1448C45.8466 11.302 45.6217 10.2935 45.6217 9.11926C45.6217 7.99237 45.8489 7.00752 46.3035 6.16472C46.758 5.32191 47.3996 4.66614 48.2282 4.19739C49.0568 3.72864 50.0346 3.49426 51.1614 3.49426C51.9853 3.49426 52.731 3.6221 53.3987 3.87778C54.0663 4.13347 54.6368 4.50515 55.1103 4.99284C55.5838 5.4758 55.9484 6.06292 56.2041 6.75421C56.4597 7.44549 56.5876 8.22438 56.5876 9.09085V9.99994H46.8433V7.84085H52.9796C52.9749 7.52835 52.8944 7.25373 52.7382 7.01699C52.5866 6.77551 52.3807 6.58849 52.1203 6.45591C51.8646 6.3186 51.5734 6.24994 51.2467 6.24994C50.9294 6.24994 50.6382 6.3186 50.3731 6.45591C50.1079 6.58849 49.8949 6.77314 49.7339 7.00989C49.5776 7.24663 49.4948 7.52362 49.4853 7.84085V10.1704C49.4853 10.5208 49.5587 10.8333 49.7055 11.1079C49.8523 11.3825 50.063 11.598 50.3376 11.7542C50.6122 11.9105 50.9436 11.9886 51.3319 11.9886C51.6018 11.9886 51.848 11.9507 52.0705 11.8749C52.2978 11.7992 52.4919 11.6903 52.6529 11.5482C52.8139 11.4015 52.9323 11.2263 53.008 11.0227H56.5876C56.4645 11.7802 56.1733 12.4384 55.714 12.9971C55.2547 13.5511 54.6463 13.982 53.8887 14.2897C53.1359 14.5927 52.2552 14.7443 51.2467 14.7443Z" fill="#101828"/>
<path d="M44.8364 3.63635L41.1716 14.5454H36.6261L32.9614 3.63635H37.0807L38.842 10.8523H38.9557L40.717 3.63635H44.8364Z" fill="#101828"/>
<path d="M25.056 14.7159C24.36 14.7159 23.7445 14.6022 23.2094 14.3749C22.6791 14.1429 22.2625 13.7926 21.9594 13.3238C21.6564 12.8551 21.5049 12.2585 21.5049 11.534C21.5049 10.9374 21.6067 10.4284 21.8103 10.007C22.0139 9.58091 22.298 9.2329 22.6626 8.96301C23.0271 8.69313 23.4509 8.48716 23.9339 8.34511C24.4216 8.20307 24.9471 8.11074 25.5106 8.06813C26.1214 8.02078 26.6114 7.96396 26.9807 7.89767C27.3548 7.82665 27.6247 7.72958 27.7904 7.60648C27.9561 7.47864 28.039 7.31055 28.039 7.10222V7.07381C28.039 6.78972 27.9301 6.57191 27.7123 6.4204C27.4945 6.26888 27.2151 6.19313 26.8742 6.19313C26.5001 6.19313 26.1948 6.27599 25.958 6.44171C25.726 6.60269 25.5863 6.85127 25.539 7.18744H21.931C21.9784 6.52456 22.1891 5.91377 22.5631 5.35506C22.9419 4.79161 23.4935 4.3418 24.218 4.00563C24.9424 3.66472 25.8467 3.49426 26.931 3.49426C27.7123 3.49426 28.413 3.58659 29.0333 3.77125C29.6536 3.95118 30.1815 4.20449 30.6171 4.53119C31.0527 4.85316 31.3841 5.23195 31.6114 5.66756C31.8434 6.09843 31.9594 6.56718 31.9594 7.07381V14.5454H28.2947V13.0113H28.2094C27.9916 13.4185 27.7265 13.7476 27.414 13.9985C27.1062 14.2495 26.7535 14.4318 26.3557 14.5454C25.9627 14.659 25.5295 14.7159 25.056 14.7159ZM26.3344 12.2443C26.6327 12.2443 26.9121 12.1827 27.1725 12.0596C27.4376 11.9365 27.6531 11.7589 27.8188 11.5269C27.9845 11.2949 28.0674 11.0132 28.0674 10.6818V9.77267C27.9632 9.81528 27.8519 9.85553 27.7336 9.89341C27.6199 9.93129 27.4968 9.9668 27.3643 9.99994C27.2364 10.0331 27.0991 10.0639 26.9523 10.0923C26.8103 10.1207 26.6611 10.1467 26.5049 10.1704C26.2019 10.2177 25.9533 10.2959 25.7591 10.4048C25.5697 10.5089 25.4277 10.6391 25.333 10.7954C25.243 10.9469 25.1981 11.1174 25.1981 11.3068C25.1981 11.6098 25.3046 11.8418 25.5177 12.0028C25.7307 12.1638 26.003 12.2443 26.3344 12.2443Z" fill="#101828"/>
<path d="M13.4522 14.5454V3.63631H17.259V5.71017H17.3727C17.5715 4.94313 17.8864 4.38205 18.3173 4.02693C18.7529 3.67182 19.2619 3.49426 19.8443 3.49426C20.0147 3.49426 20.1828 3.50847 20.3485 3.53688C20.519 3.56055 20.6823 3.59606 20.8386 3.64341V6.98858C20.6444 6.92229 20.4053 6.87258 20.1212 6.83943C19.8372 6.80629 19.5933 6.78972 19.3897 6.78972C19.0062 6.78972 18.6605 6.87731 18.3528 7.0525C18.0497 7.22296 17.8106 7.46443 17.6354 7.77693C17.4603 8.0847 17.3727 8.44691 17.3727 8.86358V14.5454H13.4522Z" fill="#101828"/>
<path d="M0 3.18182V0H12.642V3.18182H8.26705V14.5455H4.375V3.18182H0Z" fill="#101828"/>

</symbol>
<symbol id="icon-heart" viewBox="0 0 24 21">

<path d="M12 7.854L10.659 5.1705C10.326 4.506 9.7485 3.5505 8.931 2.778C8.127 2.0175 7.164 1.5 6 1.5C3.486 1.5 1.5 3.489 1.5 5.88C1.5 7.6965 2.331 8.979 4.302 10.935C4.8075 11.436 5.3835 11.9775 6.021 12.5745C7.683 14.1345 9.75 16.0755 12 18.6705C14.25 16.0755 16.317 14.1345 17.979 12.5745C18.6165 11.9775 19.194 11.4345 19.698 10.935C21.669 8.979 22.5 7.6965 22.5 5.88C22.5 3.489 20.514 1.5 18 1.5C16.8345 1.5 15.873 2.0175 15.069 2.778C14.2515 3.5505 13.674 4.506 13.341 5.1705L12 7.854ZM12.588 20.292C12.5158 20.3776 12.4257 20.4463 12.3242 20.4935C12.2226 20.5407 12.112 20.5651 12 20.5651C11.888 20.5651 11.7774 20.5407 11.6758 20.4935C11.5743 20.4463 11.4842 20.3776 11.412 20.292C9.0105 17.439 6.837 15.399 5.0475 13.7205C1.95 10.812 0 8.9835 0 5.88C0 2.6325 2.685 0 6 0C8.4 0 10.0785 1.575 11.106 3.012C11.496 3.5595 11.793 4.086 12 4.5C12.2597 3.982 12.5586 3.48456 12.894 3.012C13.9215 1.5735 15.6 0 18 0C21.315 0 24 2.6325 24 5.88C24 8.9835 22.05 10.812 18.9525 13.7205C17.163 15.4005 14.9895 17.442 12.588 20.292Z" fill="#101828"/>

</symbol>
<symbol id="icon-rating" viewBox="0 0 15 14">

<path d="M6.64762 0.266681C6.83522 -0.0888921 7.34446 -0.0888912 7.53207 0.266682L9.42031 3.84556C9.49265 3.98268 9.62452 4.07849 9.77728 4.10492L13.7645 4.79481C14.1606 4.86335 14.318 5.34767 14.0378 5.63596L11.2176 8.53772C11.1095 8.6489 11.0592 8.80391 11.0812 8.95737L11.6572 12.9626C11.7145 13.3606 11.3025 13.6599 10.9417 13.4825L7.31047 11.697C7.17134 11.6286 7.00835 11.6286 6.86922 11.697L3.23799 13.4825C2.87722 13.6599 2.46523 13.3606 2.52246 12.9626L3.09845 8.95737C3.12052 8.80391 3.07015 8.6489 2.9621 8.53772L0.141883 5.63596C-0.138315 5.34767 0.0190498 4.86335 0.415192 4.79481L4.4024 4.10492C4.55517 4.07849 4.68704 3.98268 4.75938 3.84556L6.64762 0.266681Z" fill="currentColor" stroke="currentColor"/>;
"/>

</symbol>
<symbol id="icon-map" viewBox="0 0 16 16">

<path fill-rule="evenodd" clip-rule="evenodd" d="M15.817 0.112823C15.8743 0.159759 15.9204 0.218822 15.952 0.285748C15.9837 0.352674 16 0.425792 16 0.499823V14.4998C15.9999 14.6154 15.9598 14.7273 15.8866 14.8167C15.8133 14.906 15.7113 14.9672 15.598 14.9898L10.598 15.9898C10.5333 16.0028 10.4667 16.0028 10.402 15.9898L5.5 15.0098L0.598 15.9898C0.525489 16.0043 0.450665 16.0025 0.378921 15.9846C0.307176 15.9667 0.240296 15.9331 0.183099 15.8863C0.125903 15.8394 0.0798134 15.7804 0.0481518 15.7136C0.0164902 15.6468 4.46527e-05 15.5738 0 15.4998L0 1.49982C6.9782e-05 1.38428 0.0401561 1.27232 0.113443 1.18299C0.186731 1.09366 0.288695 1.03247 0.402 1.00982L5.402 0.00982311C5.46669 -0.00310763 5.53331 -0.00310763 5.598 0.00982311L10.5 0.989823L15.402 0.00982311C15.4745 -0.00476108 15.5493 -0.00308756 15.6211 0.0147231C15.6928 0.0325338 15.7597 0.0660382 15.817 0.112823ZM10 1.90982L6 1.10982V14.0898L10 14.8898V1.90982ZM11 14.8898L15 14.0898V1.10982L11 1.90982V14.8898ZM5 14.0898V1.10982L1 1.90982V14.8898L5 14.0898Z" fill="#101828"/>

</symbol>
<symbol id="icon-divider" viewBox="0 0 360 1">

<path d="M0 0.5H360" stroke="#DADDE1"/>

</symbol>
<symbol id="icon-alcove" viewBox="0 0 28 28">

<path d="M6 2V6H2V2H6ZM8 26V22C8 21.4696 7.78929 20.9609 7.41421 20.5858C7.03914 20.2107 6.53043 20 6 20H2C1.46957 20 0.960859 20.2107 0.585786 20.5858C0.210714 20.9609 0 21.4696 0 22V26C0 26.5304 0.210714 27.0391 0.585786 27.4142C0.960859 27.7893 1.46957 28 2 28H6C6.53043 28 7.03914 27.7893 7.41421 27.4142C7.78929 27.0391 8 26.5304 8 26ZM8 16V12C8 11.4696 7.78929 10.9609 7.41421 10.5858C7.03914 10.2107 6.53043 10 6 10H2C1.46957 10 0.960859 10.2107 0.585786 10.5858C0.210714 10.9609 0 11.4696 0 12V16C0 16.5304 0.210714 17.0391 0.585786 17.4142C0.960859 17.7893 1.46957 18 2 18H6C6.53043 18 7.03914 17.7893 7.41421 17.4142C7.78929 17.0391 8 16.5304 8 16ZM8 6V2C8 1.46957 7.78929 0.960859 7.41421 0.585786C7.03914 0.210714 6.53043 0 6 0H2C1.46957 0 0.960859 0.210714 0.585786 0.585786C0.210714 0.960859 0 1.46957 0 2V6C0 6.53043 0.210714 7.03914 0.585786 7.41421C0.960859 7.78929 1.46957 8 2 8H6C6.53043 8 7.03914 7.78929 7.41421 7.41421C7.78929 7.03914 8 6.53043 8 6ZM18 26V22C18 21.4696 17.7893 20.9609 17.4142 20.5858C17.0391 20.2107 16.5304 20 16 20H12C11.4696 20 10.9609 20.2107 10.5858 20.5858C10.2107 20.9609 10 21.4696 10 22V26C10 26.5304 10.2107 27.0391 10.5858 27.4142C10.9609 27.7893 11.4696 28 12 28H16C16.5304 28 17.0391 27.7893 17.4142 27.4142C17.7893 27.0391 18 26.5304 18 26ZM18 16V12C18 11.4696 17.7893 10.9609 17.4142 10.5858C17.0391 10.2107 16.5304 10 16 10H12C11.4696 10 10.9609 10.2107 10.5858 10.5858C10.2107 10.9609 10 11.4696 10 12V16C10 16.5304 10.2107 17.0391 10.5858 17.4142C10.9609 17.7893 11.4696 18 12 18H16C16.5304 18 17.0391 17.7893 17.4142 17.4142C17.7893 17.0391 18 16.5304 18 16ZM18 6V2C18 1.46957 17.7893 0.960859 17.4142 0.585786C17.0391 0.210714 16.5304 0 16 0H12C11.4696 0 10.9609 0.210714 10.5858 0.585786C10.2107 0.960859 10 1.46957 10 2V6C10 6.53043 10.2107 7.03914 10.5858 7.41421C10.9609 7.78929 11.4696 8 12 8H16C16.5304 8 17.0391 7.78929 17.4142 7.41421C17.7893 7.03914 18 6.53043 18 6ZM16 2V6H12V2H16ZM26 2V6H22V2H26ZM6 12V16H2V12H6ZM16 12V16H12V12H16ZM26 12H22V16H26V12ZM6 22V26H2V22H6ZM16 22V26H12V22H16ZM26 22V26H22V22H26ZM22 0C21.4696 0 20.9609 0.210714 20.5858 0.585786C20.2107 0.960859 20 1.46957 20 2V6C20 6.53043 20.2107 7.03914 20.5858 7.41421C20.9609 7.78929 21.4696 8 22 8H26C26.5304 8 27.0391 7.78929 27.4142 7.41421C27.7893 7.03914 28 6.53043 28 6V2C28 1.46957 27.7893 0.960859 27.4142 0.585786C27.0391 0.210714 26.5304 0 26 0H22ZM20 12C20 11.4696 20.2107 10.9609 20.5858 10.5858C20.9609 10.2107 21.4696 10 22 10H26C26.5304 10 27.0391 10.2107 27.4142 10.5858C27.7893 10.9609 28 11.4696 28 12V16C28 16.5304 27.7893 17.0391 27.4142 17.4142C27.0391 17.7893 26.5304 18 26 18H22C21.4696 18 20.9609 17.7893 20.5858 17.4142C20.2107 17.0391 20 16.5304 20 16V12ZM22 20C21.4696 20 20.9609 20.2107 20.5858 20.5858C20.2107 20.9609 20 21.4696 20 22V26C20 26.5304 20.2107 27.0391 20.5858 27.4142C20.9609 27.7893 21.4696 28 22 28H26C26.5304 28 27.0391 27.7893 27.4142 27.4142C27.7893 27.0391 28 26.5304 28 26V22C28 21.4696 27.7893 20.9609 27.4142 20.5858C27.0391 20.2107 26.5304 20 26 20H22Z" fill="#101828"/>

</symbol>
<symbol id="icon-fully" viewBox="0 0 28 28">

<path d="M0 3C0 2.20435 0.316071 1.44129 0.87868 0.87868C1.44129 0.316071 2.20435 0 3 0H9C9.79565 0 10.5587 0.316071 11.1213 0.87868C11.6839 1.44129 12 2.20435 12 3V9C12 9.79565 11.6839 10.5587 11.1213 11.1213C10.5587 11.6839 9.79565 12 9 12H3C2.20435 12 1.44129 11.6839 0.87868 11.1213C0.316071 10.5587 0 9.79565 0 9V3ZM3 2C2.73478 2 2.48043 2.10536 2.29289 2.29289C2.10536 2.48043 2 2.73478 2 3V9C2 9.26522 2.10536 9.51957 2.29289 9.70711C2.48043 9.89464 2.73478 10 3 10H9C9.26522 10 9.51957 9.89464 9.70711 9.70711C9.89464 9.51957 10 9.26522 10 9V3C10 2.73478 9.89464 2.48043 9.70711 2.29289C9.51957 2.10536 9.26522 2 9 2H3ZM16 3C16 2.20435 16.3161 1.44129 16.8787 0.87868C17.4413 0.316071 18.2044 0 19 0H25C25.7956 0 26.5587 0.316071 27.1213 0.87868C27.6839 1.44129 28 2.20435 28 3V9C28 9.79565 27.6839 10.5587 27.1213 11.1213C26.5587 11.6839 25.7956 12 25 12H19C18.2044 12 17.4413 11.6839 16.8787 11.1213C16.3161 10.5587 16 9.79565 16 9V3ZM19 2C18.7348 2 18.4804 2.10536 18.2929 2.29289C18.1054 2.48043 18 2.73478 18 3V9C18 9.26522 18.1054 9.51957 18.2929 9.70711C18.4804 9.89464 18.7348 10 19 10H25C25.2652 10 25.5196 9.89464 25.7071 9.70711C25.8946 9.51957 26 9.26522 26 9V3C26 2.73478 25.8946 2.48043 25.7071 2.29289C25.5196 2.10536 25.2652 2 25 2H19ZM0 19C0 18.2044 0.316071 17.4413 0.87868 16.8787C1.44129 16.3161 2.20435 16 3 16H9C9.79565 16 10.5587 16.3161 11.1213 16.8787C11.6839 17.4413 12 18.2044 12 19V25C12 25.7956 11.6839 26.5587 11.1213 27.1213C10.5587 27.6839 9.79565 28 9 28H3C2.20435 28 1.44129 27.6839 0.87868 27.1213C0.316071 26.5587 0 25.7956 0 25V19ZM3 18C2.73478 18 2.48043 18.1054 2.29289 18.2929C2.10536 18.4804 2 18.7348 2 19V25C2 25.2652 2.10536 25.5196 2.29289 25.7071C2.48043 25.8946 2.73478 26 3 26H9C9.26522 26 9.51957 25.8946 9.70711 25.7071C9.89464 25.5196 10 25.2652 10 25V19C10 18.7348 9.89464 18.4804 9.70711 18.2929C9.51957 18.1054 9.26522 18 9 18H3ZM16 19C16 18.2044 16.3161 17.4413 16.8787 16.8787C17.4413 16.3161 18.2044 16 19 16H25C25.7956 16 26.5587 16.3161 27.1213 16.8787C27.6839 17.4413 28 18.2044 28 19V25C28 25.7956 27.6839 26.5587 27.1213 27.1213C26.5587 27.6839 25.7956 28 25 28H19C18.2044 28 17.4413 27.6839 16.8787 27.1213C16.3161 26.5587 16 25.7956 16 25V19ZM19 18C18.7348 18 18.4804 18.1054 18.2929 18.2929C18.1054 18.4804 18 18.7348 18 19V25C18 25.2652 18.1054 25.5196 18.2929 25.7071C18.4804 25.8946 18.7348 26 19 26H25C25.2652 26 25.5196 25.8946 25.7071 25.7071C25.8946 25.5196 26 25.2652 26 25V19C26 18.7348 25.8946 18.4804 25.7071 18.2929C25.5196 18.1054 25.2652 18 25 18H19Z" fill="#101828"/>

</symbol>
<symbol id="icon-van" viewBox="0 0 32 32">

<path d="M12 2H2V30H12V2ZM30 2H20V12H30V2ZM30 20V30H20V20H30ZM0 2C0 1.46957 0.210714 0.960859 0.585786 0.585786C0.960859 0.210714 1.46957 0 2 0L12 0C12.5304 0 13.0391 0.210714 13.4142 0.585786C13.7893 0.960859 14 1.46957 14 2V30C14 30.5304 13.7893 31.0391 13.4142 31.4142C13.0391 31.7893 12.5304 32 12 32H2C1.46957 32 0.960859 31.7893 0.585786 31.4142C0.210714 31.0391 0 30.5304 0 30V2ZM18 2C18 1.46957 18.2107 0.960859 18.5858 0.585786C18.9609 0.210714 19.4696 0 20 0L30 0C30.5304 0 31.0391 0.210714 31.4142 0.585786C31.7893 0.960859 32 1.46957 32 2V12C32 12.5304 31.7893 13.0391 31.4142 13.4142C31.0391 13.7893 30.5304 14 30 14H20C19.4696 14 18.9609 13.7893 18.5858 13.4142C18.2107 13.0391 18 12.5304 18 12V2ZM20 18C19.4696 18 18.9609 18.2107 18.5858 18.5858C18.2107 18.9609 18 19.4696 18 20V30C18 30.5304 18.2107 31.0391 18.5858 31.4142C18.9609 31.7893 19.4696 32 20 32H30C30.5304 32 31.0391 31.7893 31.4142 31.4142C31.7893 31.0391 32 30.5304 32 30V20C32 19.4696 31.7893 18.9609 31.4142 18.5858C31.0391 18.2107 30.5304 18 30 18H20Z" fill="#101828"/>

</symbol>
<symbol id="icon-water" viewBox="0 0 20 28">

<path d="M19 17.5047C19 23.0278 15.5231 26.5047 10 26.5047C4.47687 26.5047 1 23.0278 1 17.5047C1 11.5778 7.45187 3.57657 9.43062 1.26219C9.50103 1.17996 9.58841 1.11395 9.68675 1.06869C9.78509 1.02343 9.89206 1 10.0003 1C10.1086 1 10.2155 1.02343 10.3139 1.06869C10.4122 1.11395 10.4996 1.17996 10.57 1.26219C12.5481 3.57657 19 11.5778 19 17.5047Z" stroke="#101828" stroke-width="2" fill="none" stroke-miterlimit="10"/>

</symbol>
<symbol id="icon-radio" viewBox="0 0 20 20">

<path d="M8.75 3.125C8.75 2.95924 8.81585 2.80027 8.93306 2.68306C9.05027 2.56585 9.20924 2.5 9.375 2.5H18.125C18.2908 2.5 18.4497 2.56585 18.5669 2.68306C18.6842 2.80027 18.75 2.95924 18.75 3.125V4.375C18.75 4.54076 18.6842 4.69973 18.5669 4.81694C18.4497 4.93415 18.2908 5 18.125 5H9.375C9.20924 5 9.05027 4.93415 8.93306 4.81694C8.81585 4.69973 8.75 4.54076 8.75 4.375V3.125ZM5.58794e-08 15C5.58794e-08 14.0054 0.395088 13.0516 1.09835 12.3483C1.80161 11.6451 2.75544 11.25 3.75 11.25C4.74456 11.25 5.69839 11.6451 6.40165 12.3483C7.10491 13.0516 7.5 14.0054 7.5 15C7.5 15.9946 7.10491 16.9484 6.40165 17.6517C5.69839 18.3549 4.74456 18.75 3.75 18.75C2.75544 18.75 1.80161 18.3549 1.09835 17.6517C0.395088 16.9484 5.58794e-08 15.9946 5.58794e-08 15ZM8.75 13.125C8.75 12.9592 8.81585 12.8003 8.93306 12.6831C9.05027 12.5658 9.20924 12.5 9.375 12.5H18.125C18.2908 12.5 18.4497 12.5658 18.5669 12.6831C18.6842 12.8003 18.75 12.9592 18.75 13.125V14.375C18.75 14.5408 18.6842 14.6997 18.5669 14.8169C18.4497 14.9342 18.2908 15 18.125 15H9.375C9.20924 15 9.05027 14.9342 8.93306 14.8169C8.81585 14.6997 8.75 14.5408 8.75 14.375V13.125ZM8.75 6.875C8.75 6.70924 8.81585 6.55027 8.93306 6.43306C9.05027 6.31585 9.20924 6.25 9.375 6.25H15.625C15.7908 6.25 15.9497 6.31585 16.0669 6.43306C16.1842 6.55027 16.25 6.70924 16.25 6.875C16.25 7.04076 16.1842 7.19973 16.0669 7.31694C15.9497 7.43415 15.7908 7.5 15.625 7.5H9.375C9.20924 7.5 9.05027 7.43415 8.93306 7.31694C8.81585 7.19973 8.75 7.04076 8.75 6.875ZM8.75 16.875C8.75 16.7092 8.81585 16.5503 8.93306 16.4331C9.05027 16.3158 9.20924 16.25 9.375 16.25H15.625C15.7908 16.25 15.9497 16.3158 16.0669 16.4331C16.1842 16.5503 16.25 16.7092 16.25 16.875C16.25 17.0408 16.1842 17.1997 16.0669 17.3169C15.9497 17.4342 15.7908 17.5 15.625 17.5H9.375C9.20924 17.5 9.05027 17.4342 8.93306 17.3169C8.81585 17.1997 8.75 17.0408 8.75 16.875ZM3.75 1.25C3.25754 1.25 2.76991 1.347 2.31494 1.53545C1.85997 1.72391 1.44657 2.00013 1.09835 2.34835C0.75013 2.69657 0.473907 3.10997 0.285452 3.56494C0.0969966 4.01991 0 4.50754 0 5C0 5.49246 0.0969966 5.98009 0.285452 6.43506C0.473907 6.89003 0.75013 7.30343 1.09835 7.65165C1.44657 7.99987 1.85997 8.27609 2.31494 8.46455C2.76991 8.653 3.25754 8.75 3.75 8.75C4.74456 8.75 5.69839 8.35491 6.40165 7.65165C7.10491 6.94839 7.5 5.99456 7.5 5C7.5 4.00544 7.10491 3.05161 6.40165 2.34835C5.69839 1.64509 4.74456 1.25 3.75 1.25ZM3.75 6.875C3.25272 6.875 2.77581 6.67746 2.42417 6.32583C2.07254 5.97419 1.875 5.49728 1.875 5C1.875 4.50272 2.07254 4.02581 2.42417 3.67417C2.77581 3.32254 3.25272 3.125 3.75 3.125C4.24728 3.125 4.72419 3.32254 5.07583 3.67417C5.42746 4.02581 5.625 4.50272 5.625 5C5.625 5.49728 5.42746 5.97419 5.07583 6.32583C4.72419 6.67746 4.24728 6.875 3.75 6.875Z" fill="#101828"/>

</symbol>
<symbol id="icon-refrigerator" viewBox="0 0 24 29">

<path fill-rule="evenodd" clip-rule="evenodd" d="M11.7413 0H11.592C9.14133 0 7.2 0 5.68133 0.204C4.11867 0.414667 2.85333 0.857333 1.85467 1.85467C0.857333 2.85333 0.414667 4.11867 0.204 5.68133C1.58946e-07 7.20133 0 9.14133 0 11.592V15.7413C0 18.192 1.58946e-07 20.1333 0.204 21.652C0.414667 23.2147 0.857333 24.48 1.85467 25.4787C2.468 26.0907 3.18 26.4933 4 26.7627V27.6667C4 28.2187 4.448 28.6667 5 28.6667H6.33333C6.59855 28.6667 6.8529 28.5613 7.04044 28.3738C7.22798 28.1862 7.33333 27.9319 7.33333 27.6667V27.272C8.54267 27.3333 9.95333 27.3333 11.592 27.3333H11.7413C13.3813 27.3333 14.7907 27.3333 16 27.272V27.6667C16 28.2187 16.448 28.6667 17 28.6667H18.3333C18.5986 28.6667 18.8529 28.5613 19.0404 28.3738C19.228 28.1862 19.3333 27.9319 19.3333 27.6667V26.7627C20.1533 26.4933 20.8667 26.0907 21.4787 25.4787C22.476 24.48 22.9187 23.2147 23.1293 21.652C23.3333 20.132 23.3333 18.192 23.3333 15.7413V11.5933C23.3333 9.14267 23.3333 7.20133 23.1293 5.68267C22.9187 4.12 22.476 2.85467 21.4787 1.856C20.48 0.858667 19.2147 0.416 17.652 0.205333C16.132 0.0013334 14.192 0.0013334 11.7413 0.0013334M3.26933 3.26933C3.83333 2.70533 4.60667 2.36667 5.948 2.18667C7.31867 2.00267 9.124 2 11.6667 2C14.2093 2 16.016 2.00267 17.3867 2.18667C18.7267 2.36667 19.5 2.70533 20.064 3.26933C20.628 3.83333 20.9667 4.60667 21.1467 5.948C21.3307 7.31867 21.3333 9.124 21.3333 11.6667V12.6667H2V11.6667C2 9.124 2.00267 7.31867 2.18667 5.94667C2.36667 4.60667 2.70533 3.83333 3.26933 3.26933ZM2 14.6667H21.3333V15.6667C21.3333 18.2093 21.3307 20.016 21.1467 21.3867C20.9667 22.7267 20.628 23.5 20.064 24.064C19.5 24.628 18.7267 24.9667 17.3853 25.1467C16.0147 25.3307 14.2093 25.3333 11.6667 25.3333C9.124 25.3333 7.31867 25.3307 5.94667 25.1467C4.60667 24.9667 3.83333 24.628 3.26933 24.064C2.70533 23.5 2.36667 22.7267 2.18667 21.3853C2.00267 20.016 2 18.2093 2 15.6667V14.6667Z" fill="#101828"/>

</symbol>
<symbol id="icon-automatic" viewBox="0 0 32 24">

<path fill-rule="evenodd" clip-rule="evenodd" d="M12 3C12 2.20435 12.3161 1.44129 12.8787 0.87868C13.4413 0.316071 14.2044 0 15 0H17C17.7956 0 18.5587 0.316071 19.1213 0.87868C19.6839 1.44129 20 2.20435 20 3V5C20 5.79565 19.6839 6.55871 19.1213 7.12132C18.5587 7.68393 17.7956 8 17 8V10H28C28.2652 10 28.5196 10.1054 28.7071 10.2929C28.8946 10.4804 29 10.7348 29 11V13C29 13.2652 28.8946 13.5196 28.7071 13.7071C28.5196 13.8946 28.2652 14 28 14C27.7348 14 27.4804 13.8946 27.2929 13.7071C27.1054 13.5196 27 13.2652 27 13V12H17V13C17 13.2652 16.8946 13.5196 16.7071 13.7071C16.5196 13.8946 16.2652 14 16 14C15.7348 14 15.4804 13.8946 15.2929 13.7071C15.1054 13.5196 15 13.2652 15 13V12H5V13C5 13.2652 4.89464 13.5196 4.70711 13.7071C4.51957 13.8946 4.26522 14 4 14C3.73478 14 3.48043 13.8946 3.29289 13.7071C3.10536 13.5196 3 13.2652 3 13V11C3 10.7348 3.10536 10.4804 3.29289 10.2929C3.48043 10.1054 3.73478 10 4 10H15V8C14.2044 8 13.4413 7.68393 12.8787 7.12132C12.3161 6.55871 12 5.79565 12 5V3ZM17 6C17.2652 6 17.5196 5.89464 17.7071 5.70711C17.8946 5.51957 18 5.26522 18 5V3C18 2.73478 17.8946 2.48043 17.7071 2.29289C17.5196 2.10536 17.2652 2 17 2H15C14.7348 2 14.4804 2.10536 14.2929 2.29289C14.1054 2.48043 14 2.73478 14 3V5C14 5.26522 14.1054 5.51957 14.2929 5.70711C14.4804 5.89464 14.7348 6 15 6H17ZM0 19C0 18.2044 0.31607 17.4413 0.87868 16.8787C1.44129 16.3161 2.20435 16 3 16H5C5.79565 16 6.55871 16.3161 7.12132 16.8787C7.68393 17.4413 8 18.2044 8 19V21C8 21.7956 7.68393 22.5587 7.12132 23.1213C6.55871 23.6839 5.79565 24 5 24H3C2.20435 24 1.44129 23.6839 0.87868 23.1213C0.31607 22.5587 0 21.7956 0 21L0 19ZM3 18C2.73478 18 2.48043 18.1054 2.29289 18.2929C2.10536 18.4804 2 18.7348 2 19V21C2 21.2652 2.10536 21.5196 2.29289 21.7071C2.48043 21.8946 2.73478 22 3 22H5C5.26522 22 5.51957 21.8946 5.70711 21.7071C5.89464 21.5196 6 21.2652 6 21V19C6 18.7348 5.89464 18.4804 5.70711 18.2929C5.51957 18.1054 5.26522 18 5 18H3ZM12 19C12 18.2044 12.3161 17.4413 12.8787 16.8787C13.4413 16.3161 14.2044 16 15 16H17C17.7956 16 18.5587 16.3161 19.1213 16.8787C19.6839 17.4413 20 18.2044 20 19V21C20 21.7956 19.6839 22.5587 19.1213 23.1213C18.5587 23.6839 17.7956 24 17 24H15C14.2044 24 13.4413 23.6839 12.8787 23.1213C12.3161 22.5587 12 21.7956 12 21V19ZM15 18C14.7348 18 14.4804 18.1054 14.2929 18.2929C14.1054 18.4804 14 18.7348 14 19V21C14 21.2652 14.1054 21.5196 14.2929 21.7071C14.4804 21.8946 14.7348 22 15 22H17C17.2652 22 17.5196 21.8946 17.7071 21.7071C17.8946 21.5196 18 21.2652 18 21V19C18 18.7348 17.8946 18.4804 17.7071 18.2929C17.5196 18.1054 17.2652 18 17 18H15ZM24 19C24 18.2044 24.3161 17.4413 24.8787 16.8787C25.4413 16.3161 26.2044 16 27 16H29C29.7956 16 30.5587 16.3161 31.1213 16.8787C31.6839 17.4413 32 18.2044 32 19V21C32 21.7956 31.6839 22.5587 31.1213 23.1213C30.5587 23.6839 29.7956 24 29 24H27C26.2044 24 25.4413 23.6839 24.8787 23.1213C24.3161 22.5587 24 21.7956 24 21V19ZM27 18C26.7348 18 26.4804 18.1054 26.2929 18.2929C26.1054 18.4804 26 18.7348 26 19V21C26 21.2652 26.1054 21.5196 26.2929 21.7071C26.4804 21.8946 26.7348 22 27 22H29C29.2652 22 29.5196 21.8946 29.7071 21.7071C29.8946 21.5196 30 21.2652 30 21V19C30 18.7348 29.8946 18.4804 29.7071 18.2929C29.5196 18.1054 29.2652 18 29 18H27Z" fill="#101828"/>

</symbol>
<symbol id="icon-ac" viewBox="0 0 32 28">

<path d="M25 2C23.6739 2 22.4021 2.52679 21.4645 3.46447C20.5268 4.40215 20 5.67392 20 7C20 7.26522 19.8946 7.51957 19.7071 7.70711C19.5196 7.89465 19.2652 8 19 8C18.7348 8 18.4804 7.89465 18.2929 7.70711C18.1054 7.51957 18 7.26522 18 7C18 5.61553 18.4105 4.26216 19.1797 3.11101C19.9489 1.95987 21.0421 1.06266 22.3212 0.532846C23.6003 0.00303298 25.0078 -0.13559 26.3656 0.134506C27.7235 0.404603 28.9708 1.07129 29.9497 2.05026C30.9287 3.02922 31.5954 4.2765 31.8655 5.63437C32.1356 6.99224 31.997 8.3997 31.4672 9.67879C30.9373 10.9579 30.0401 12.0511 28.889 12.8203C27.7378 13.5895 26.3845 14 25 14H1C0.734784 14 0.48043 13.8946 0.292893 13.7071C0.105357 13.5196 0 13.2652 0 13C0 12.7348 0.105357 12.4804 0.292893 12.2929C0.48043 12.1054 0.734784 12 1 12H25C26.3261 12 27.5979 11.4732 28.5355 10.5355C29.4732 9.59785 30 8.32609 30 7C30 5.67392 29.4732 4.40215 28.5355 3.46447C27.5979 2.52679 26.3261 2 25 2ZM11 4C10.4696 4 9.96086 4.21072 9.58579 4.58579C9.21071 4.96086 9 5.46957 9 6C9 6.26522 8.89464 6.51957 8.70711 6.70711C8.51957 6.89465 8.26522 7 8 7C7.73478 7 7.48043 6.89465 7.29289 6.70711C7.10536 6.51957 7 6.26522 7 6C7 5.20888 7.2346 4.43552 7.67412 3.77772C8.11365 3.11993 8.73836 2.60724 9.46927 2.30449C10.2002 2.00173 11.0044 1.92252 11.7804 2.07686C12.5563 2.2312 13.269 2.61217 13.8284 3.17158C14.3878 3.73099 14.7688 4.44372 14.9231 5.21964C15.0775 5.99557 14.9983 6.79983 14.6955 7.53074C14.3928 8.26164 13.8801 8.88636 13.2223 9.32588C12.5645 9.76541 11.7911 10 11 10H1C0.734784 10 0.48043 9.89465 0.292893 9.70711C0.105357 9.51957 0 9.26522 0 9C0 8.73479 0.105357 8.48043 0.292893 8.2929C0.48043 8.10536 0.734784 8 1 8H11C11.5304 8 12.0391 7.78929 12.4142 7.41422C12.7893 7.03914 13 6.53044 13 6C13 5.46957 12.7893 4.96086 12.4142 4.58579C12.0391 4.21072 11.5304 4 11 4ZM0 17C0 16.7348 0.105357 16.4804 0.292893 16.2929C0.48043 16.1054 0.734784 16 1 16H21.084C22.2707 16 23.4307 16.3519 24.4174 17.0112C25.4041 17.6705 26.1732 18.6075 26.6273 19.7039C27.0814 20.8003 27.2002 22.0067 26.9687 23.1705C26.7372 24.3344 26.1658 25.4035 25.3266 26.2426C24.4875 27.0818 23.4184 27.6532 22.2545 27.8847C21.0907 28.1162 19.8843 27.9974 18.7879 27.5433C17.6915 27.0892 16.7545 26.3201 16.0952 25.3334C15.4359 24.3467 15.084 23.1867 15.084 22C15.084 21.7348 15.1894 21.4804 15.3769 21.2929C15.5644 21.1054 15.8188 21 16.084 21C16.3492 21 16.6036 21.1054 16.7911 21.2929C16.9786 21.4804 17.084 21.7348 17.084 22C17.084 22.7911 17.3186 23.5645 17.7581 24.2223C18.1976 24.8801 18.8224 25.3928 19.5533 25.6955C20.2842 25.9983 21.0884 26.0775 21.8644 25.9231C22.6403 25.7688 23.353 25.3878 23.9124 24.8284C24.4718 24.269 24.8528 23.5563 25.0071 22.7804C25.1615 22.0044 25.0823 21.2002 24.7795 20.4693C24.4768 19.7384 23.9641 19.1137 23.3063 18.6741C22.6485 18.2346 21.8751 18 21.084 18H1C0.734784 18 0.48043 17.8946 0.292893 17.7071C0.105357 17.5196 0 17.2652 0 17Z" fill="#101828"/>

</symbol>
<symbol id="icon-bathroom" viewBox="0 0 31 27">

<path d="M7 25.5C7 25.7967 6.91203 26.0867 6.7472 26.3334C6.58238 26.58 6.34811 26.7723 6.07403 26.8858C5.79994 26.9993 5.49834 27.0291 5.20737 26.9712C4.91639 26.9133 4.64912 26.7704 4.43934 26.5607C4.22956 26.3509 4.0867 26.0836 4.02882 25.7926C3.97094 25.5017 4.00065 25.2001 4.11418 24.926C4.22771 24.6519 4.41997 24.4176 4.66665 24.2528C4.91332 24.088 5.20333 24 5.5 24C5.89783 24 6.27936 24.158 6.56066 24.4393C6.84197 24.7206 7 25.1022 7 25.5ZM9.5 20C9.20333 20 8.91332 20.088 8.66665 20.2528C8.41997 20.4176 8.22771 20.6519 8.11418 20.926C8.00065 21.2001 7.97094 21.5017 8.02882 21.7926C8.0867 22.0836 8.22956 22.3509 8.43934 22.5607C8.64912 22.7704 8.91639 22.9133 9.20737 22.9712C9.49834 23.0291 9.79994 22.9993 10.074 22.8858C10.3481 22.7723 10.5824 22.58 10.7472 22.3334C10.912 22.0867 11 21.7967 11 21.5C11 21.1022 10.842 20.7206 10.5607 20.4393C10.2794 20.158 9.89783 20 9.5 20ZM1.5 20C1.20333 20 0.913319 20.088 0.666645 20.2528C0.419972 20.4176 0.227713 20.6519 0.114181 20.926C0.000649929 21.2001 -0.0290551 21.5017 0.0288228 21.7926C0.0867006 22.0836 0.229562 22.3509 0.439341 22.5607C0.649119 22.7704 0.916394 22.9133 1.20737 22.9712C1.49834 23.0291 1.79994 22.9993 2.07403 22.8858C2.34811 22.7723 2.58238 22.58 2.74721 22.3334C2.91203 22.0867 3 21.7967 3 21.5C3 21.1022 2.84197 20.7206 2.56066 20.4393C2.27936 20.158 1.89783 20 1.5 20ZM5.5 16C5.20333 16 4.91332 16.088 4.66665 16.2528C4.41997 16.4176 4.22771 16.6519 4.11418 16.926C4.00065 17.2001 3.97094 17.5017 4.02882 17.7926C4.0867 18.0836 4.22956 18.3509 4.43934 18.5607C4.64912 18.7704 4.91639 18.9133 5.20737 18.9712C5.49834 19.0291 5.79994 18.9993 6.07403 18.8858C6.34811 18.7723 6.58238 18.58 6.7472 18.3334C6.91203 18.0867 7 17.7967 7 17.5C7 17.1022 6.84197 16.7206 6.56066 16.4393C6.27936 16.158 5.89783 16 5.5 16ZM31 1C31 1.26522 30.8946 1.51957 30.7071 1.70711C30.5196 1.89464 30.2652 2 30 2H26.4137L22.9325 5.4825L20.225 21.3312C20.1641 21.6933 20.0046 22.0317 19.7642 22.3091C19.5237 22.5866 19.2115 22.7925 18.8617 22.9043C18.512 23.0161 18.1382 23.0295 17.7814 22.943C17.4245 22.8564 17.0984 22.6733 16.8388 22.4137L4.58875 10.1637C4.32875 9.90387 4.14541 9.57735 4.05887 9.22008C3.97233 8.8628 3.98593 8.48858 4.09817 8.13853C4.21042 7.78848 4.41698 7.47613 4.69515 7.23581C4.97333 6.99548 5.31236 6.83647 5.675 6.77625L21.5175 4.0675L25.2925 0.2925C25.3854 0.199666 25.4958 0.126052 25.6171 0.0758637C25.7385 0.0256756 25.8686 -0.000102986 26 3.09201e-07H30C30.2652 3.09201e-07 30.5196 0.105357 30.7071 0.292894C30.8946 0.48043 31 0.734784 31 1ZM20.7763 6.22375L6 8.75L18.25 21L20.7763 6.22375Z" fill="#101828"/>

</symbol>
<symbol id="icon-microwave" viewBox="0 0 29 25">

<path d="M25 1H3.66667C2.19391 1 1 2.19391 1 3.66667V18.3333C1 19.8061 2.19391 21 3.66667 21H25C26.4728 21 27.6667 19.8061 27.6667 18.3333V3.66667C27.6667 2.19391 26.4728 1 25 1Z" stroke="#101828" stroke-width="2" stroke-linecap="round" stroke-linejoin="round" fill="none"/>
<path d="M15.6667 6.33331H7.66667C6.93029 6.33331 6.33334 6.93027 6.33334 7.66665V14.3333C6.33334 15.0697 6.93029 15.6666 7.66667 15.6666H15.6667C16.403 15.6666 17 15.0697 17 14.3333V7.66665C17 6.93027 16.403 6.33331 15.6667 6.33331Z" stroke="#101828" stroke-width="2" stroke-linecap="round" stroke-linejoin="round" fill="none"/>
<path d="M22.3333 6.33331V15.6666M6.33334 21V23.6666M22.3333 21V23.6666" fill="none" stroke="#101828" stroke-width="2" stroke-linecap="round" stroke-linejoin="round"/>

</symbol>
<symbol id="icon-tv" viewBox="0 0 32 25">

<path d="M0 4C0 4 0 0 4 0H28C28 0 32 0 32 4V16C32 16 32 20 28 20H20C20 21.3333 20.1667 22.3333 20.5 23H22C22.2652 23 22.5196 23.1054 22.7071 23.2929C22.8946 23.4804 23 23.7348 23 24C23 24.2652 22.8946 24.5196 22.7071 24.7071C22.5196 24.8946 22.2652 25 22 25H10C9.73478 25 9.48043 24.8946 9.29289 24.7071C9.10536 24.5196 9 24.2652 9 24C9 23.7348 9.10536 23.4804 9.29289 23.2929C9.48043 23.1054 9.73478 23 10 23H11.5C11.8333 22.3333 12 21.3333 12 20H4C4 20 0 20 0 16V4ZM2.796 2.29C2.57644 2.44309 2.4012 2.65145 2.288 2.894C2.11952 3.24697 2.02168 3.62948 2 4.02V16C2 16.65 2.156 17.004 2.29 17.204C2.43 17.412 2.63133 17.5813 2.894 17.712C3.23168 17.8736 3.59663 17.9706 3.97 17.998L4.02 18H28C28.65 18 29.004 17.844 29.204 17.71C29.4236 17.5569 29.5988 17.3486 29.712 17.106C29.8736 16.7683 29.9706 16.4034 29.998 16.03L30 15.98V4C30 3.35 29.844 2.996 29.71 2.796C29.5569 2.57644 29.3486 2.4012 29.106 2.288C28.753 2.11952 28.3705 2.02168 27.98 2H4C3.35 2 2.996 2.156 2.796 2.29Z" fill="#101828"/>

</symbol>
<symbol id="icon-kitchen" viewBox="0 0 32 32">

<g clip-path="url(#clip0_12138_439)">
<path fill-rule="evenodd" clip-rule="evenodd" d="M1 12C0.85037 12.0001 0.702657 12.0337 0.567753 12.0984C0.432849 12.1632 0.314192 12.2574 0.22053 12.3741C0.126868 12.4907 0.0605872 12.627 0.0265741 12.7727C-0.00743894 12.9184 -0.00831744 13.0699 0.0240034 13.216L3.328 28.084C3.57463 29.1945 4.19255 30.1877 5.07976 30.8997C5.96698 31.6116 7.07045 31.9998 8.208 32H19.792C20.9296 31.9998 22.033 31.6116 22.9202 30.8997C23.8075 30.1877 24.4254 29.1945 24.672 28.084L24.934 26.904C26.4638 27.1901 28.045 26.8706 29.3437 26.0129C30.6424 25.1552 31.557 23.8264 31.8944 22.307C32.2318 20.7876 31.9656 19.1966 31.1521 17.8698C30.3385 16.543 29.0412 15.5843 27.534 15.196L27.976 13.216C28.0083 13.0699 28.0074 12.9184 27.9734 12.7727C27.9394 12.627 27.8731 12.4907 27.7795 12.3741C27.6858 12.2574 27.5672 12.1632 27.4323 12.0984C27.2974 12.0337 27.1496 12.0001 27 12H1ZM26 25C25.7883 25.0001 25.577 24.9834 25.368 24.95L27.102 17.154C28.027 17.4219 28.8244 18.0144 29.3478 18.8227C29.8713 19.631 30.0857 20.601 29.9518 21.5546C29.8178 22.5083 29.3445 23.3817 28.6186 24.0145C27.8927 24.6474 26.963 24.9973 26 25ZM5.28 27.65L2.246 14H25.754L22.72 27.65C22.5721 28.3164 22.2014 28.9124 21.6691 29.3396C21.1367 29.7669 20.4746 29.9998 19.792 30H8.208C7.52542 29.9998 6.86329 29.7669 6.33095 29.3396C5.79862 28.9124 5.4279 28.3164 5.28 27.65Z" fill="#101828"/>
<path d="M8.8 1.60006L8.794 1.60806L8.766 1.64606C8.62048 1.8463 8.48433 2.05319 8.358 2.26606C8.25068 2.4367 8.15641 2.61521 8.076 2.80006C8.024 2.92006 8.008 2.98406 8.002 3.00606V3.01406C8.02506 3.19086 8.08724 3.3603 8.184 3.51006C8.334 3.77606 8.54 4.05406 8.8 4.40006L8.82 4.42406C9.056 4.74006 9.34 5.11806 9.56 5.51006C9.784 5.91006 10 6.42006 10 7.00006C10 7.37606 9.87 7.73606 9.762 7.98806C9.6464 8.25621 9.51137 8.51557 9.358 8.76406C9.2011 9.02632 9.03225 9.28126 8.852 9.52806L8.816 9.57806L8.806 9.59406L8.802 9.59806C8.64314 9.8105 8.40639 9.95113 8.14384 9.98901C7.88129 10.0269 7.61444 9.95892 7.402 9.80006C7.18956 9.64119 7.04893 9.40445 7.01105 9.14189C6.97317 8.87934 7.04114 8.6125 7.2 8.40006L7.206 8.39206L7.234 8.35406C7.37952 8.15382 7.51567 7.94693 7.642 7.73406C7.74932 7.56342 7.84359 7.38491 7.924 7.20006C7.976 7.08006 7.992 7.01606 7.998 6.99406C7.97671 6.81465 7.91517 6.64237 7.818 6.49006C7.63235 6.17977 7.42588 5.88242 7.2 5.60006L7.18 5.57606C6.90979 5.23068 6.66259 4.86789 6.44 4.49006C6.16759 4.03952 6.01604 3.52631 6 3.00006C6 2.62406 6.13 2.26406 6.238 2.01206C6.356 1.73606 6.506 1.46406 6.642 1.23606C6.80088 0.975043 6.96967 0.720191 7.148 0.47206L7.198 0.40206C7.35686 0.189621 7.59361 0.0489924 7.85616 0.0111101C8.11872 -0.0267722 8.38556 0.0411949 8.598 0.20006C8.81044 0.358924 8.95107 0.595673 8.98895 0.858224C9.02683 1.12077 8.95886 1.38762 8.8 1.60006ZM14.8 1.60006L14.794 1.60806L14.766 1.64606C14.6205 1.8463 14.4843 2.05319 14.358 2.26606C14.2507 2.4367 14.1564 2.61521 14.076 2.80006C14.024 2.92006 14.008 2.98406 14.002 3.00606V3.01406C14.0251 3.19086 14.0872 3.3603 14.184 3.51006C14.334 3.77606 14.54 4.05406 14.8 4.40006L14.82 4.42406C15.056 4.74006 15.34 5.11806 15.56 5.51006C15.784 5.91006 16 6.42006 16 7.00006C16 7.37606 15.87 7.73606 15.762 7.98806C15.6464 8.25621 15.5114 8.51557 15.358 8.76406C15.2011 9.02632 15.0323 9.28126 14.852 9.52806L14.816 9.57806L14.806 9.59406L14.802 9.59806C14.6431 9.8105 14.4064 9.95113 14.1438 9.98901C13.8813 10.0269 13.6144 9.95892 13.402 9.80006C13.1896 9.64119 13.0489 9.40445 13.0111 9.14189C12.9732 8.87934 13.0411 8.6125 13.2 8.40006L13.206 8.39206L13.234 8.35406C13.3795 8.15382 13.5157 7.94693 13.642 7.73406C13.7493 7.56342 13.8436 7.38491 13.924 7.20006C13.976 7.08006 13.992 7.01606 13.998 6.99406C13.9767 6.81465 13.9152 6.64237 13.818 6.49006C13.6323 6.17977 13.4259 5.88242 13.2 5.60006L13.18 5.57606C12.9098 5.23068 12.6626 4.86789 12.44 4.49006C12.1676 4.03952 12.016 3.52631 12 3.00006C12 2.62406 12.13 2.26406 12.238 2.01206C12.356 1.73606 12.506 1.46406 12.642 1.23606C12.8009 0.975043 12.9697 0.720191 13.148 0.47206L13.198 0.40206C13.3569 0.189621 13.5936 0.0489924 13.8562 0.0111101C14.1187 -0.0267723 14.3856 0.0411949 14.598 0.20006C14.8104 0.358924 14.9511 0.595673 14.9889 0.858224C15.0268 1.12077 14.9589 1.38762 14.8 1.60006ZM20.8 1.60006L20.794 1.60806L20.766 1.64606C20.6205 1.8463 20.4843 2.05319 20.358 2.26606C20.2507 2.4367 20.1564 2.61521 20.076 2.80006C20.024 2.92006 20.008 2.98406 20.002 3.00606V3.01406C20.0251 3.19086 20.0872 3.3603 20.184 3.51006C20.334 3.77606 20.54 4.05406 20.8 4.40006L20.82 4.42406C21.056 4.74006 21.34 5.11806 21.56 5.51006C21.784 5.91006 22 6.42006 22 7.00006C22 7.37606 21.87 7.73606 21.762 7.98806C21.6464 8.25621 21.5114 8.51557 21.358 8.76406C21.2017 9.02628 21.0336 9.28122 20.854 9.52806L20.816 9.57806L20.806 9.59406L20.802 9.59806C20.6431 9.8105 20.4064 9.95113 20.1438 9.98901C19.8813 10.0269 19.6144 9.95892 19.402 9.80006C19.1896 9.64119 19.0489 9.40445 19.0111 9.14189C18.9732 8.87934 19.0411 8.6125 19.2 8.40006L19.206 8.39206L19.234 8.35406C19.3795 8.15382 19.5157 7.94693 19.642 7.73406C19.7493 7.56342 19.8436 7.38491 19.924 7.20006C19.976 7.08006 19.992 7.01606 19.998 6.99406C19.9767 6.81465 19.9152 6.64237 19.818 6.49006C19.6324 6.17977 19.4259 5.88242 19.2 5.60006L19.18 5.57606C18.9098 5.23068 18.6626 4.86789 18.44 4.49006C18.1676 4.03952 18.016 3.52631 18 3.00006C18 2.62406 18.13 2.26406 18.238 2.01206C18.356 1.73606 18.506 1.46406 18.642 1.23606C18.8009 0.975043 18.9697 0.720191 19.148 0.47206L19.198 0.40206C19.3569 0.189621 19.5936 0.0489924 19.8562 0.0111101C20.1187 -0.0267723 20.3856 0.0411949 20.598 0.20006C20.8104 0.358924 20.9511 0.595673 20.9889 0.858224C21.0268 1.12077 20.9589 1.38762 20.8 1.60006Z" fill="#101828"/>
</g>
<defs>
<clipPath id="clip0_12138_439">
<rect width="32" height="32" fill="white"/>
</clipPath>
</defs>

</symbol>
<symbol id="icon-gas" viewBox="0 0 30 30">

<path d="M6.53333 23.8667H11.8667M22.5333 23.8787V23.8667M1.2 6.53335C1.2 2.12001 2.12 1.20001 6.53333 1.20001H22.5333C26.9467 1.20001 27.8667 2.12001 27.8667 6.53335V22.5333C27.8667 26.9467 26.9467 27.8667 22.5333 27.8667H6.53333C2.12 27.8667 1.2 26.9467 1.2 22.5333V6.53335Z" stroke="#101828" stroke-width="2.4" stroke-linecap="round" stroke-linejoin="round" fill="none"/>
<path d="M14.5333 17.2C17.4788 17.2 19.8667 14.8122 19.8667 11.8667C19.8667 8.92114 17.4788 6.53333 14.5333 6.53333C11.5878 6.53333 9.2 8.92114 9.2 11.8667C9.2 14.8122 11.5878 17.2 14.5333 17.2Z" stroke="#101828" stroke-width="2.4" stroke-linecap="round" stroke-linejoin="round" fill="none"/>
<path d="M19.2 11.8667H21.2M14.5333 16.5333V18.5333M9.86665 11.8667H7.86665M14.5333 7.20001V5.20001" fill="none" stroke="#101828" stroke-width="2.4" stroke-linecap="round" stroke-linejoin="round"/>

</symbol>
<symbol id="icon-patrol" viewBox="0 0 20 20">

<path d="M3.75 3.125C3.75 2.95924 3.81585 2.80027 3.93306 2.68306C4.05027 2.56585 4.20924 2.5 4.375 2.5H10.625C10.7908 2.5 10.9497 2.56585 11.0669 2.68306C11.1842 2.80027 11.25 2.95924 11.25 3.125V9.375C11.25 9.54076 11.1842 9.69973 11.0669 9.81694C10.9497 9.93415 10.7908 10 10.625 10H4.375C4.20924 10 4.05027 9.93415 3.93306 9.81694C3.81585 9.69973 3.75 9.54076 3.75 9.375V3.125Z" fill="#101828"/>
<path d="M1.25 2.5C1.25 1.83696 1.51339 1.20107 1.98223 0.732233C2.45107 0.263392 3.08696 0 3.75 0L11.25 0C11.913 0 12.5489 0.263392 13.0178 0.732233C13.4866 1.20107 13.75 1.83696 13.75 2.5V12.5C14.413 12.5 15.0489 12.7634 15.5178 13.2322C15.9866 13.7011 16.25 14.337 16.25 15V15.625C16.25 15.7908 16.3158 15.9497 16.4331 16.0669C16.5503 16.1842 16.7092 16.25 16.875 16.25C17.0408 16.25 17.1997 16.1842 17.3169 16.0669C17.4342 15.9497 17.5 15.7908 17.5 15.625V10H16.875C16.7092 10 16.5503 9.93415 16.4331 9.81694C16.3158 9.69973 16.25 9.54076 16.25 9.375V5.46875C16.25 5.30299 16.3158 5.14402 16.4331 5.02681C16.5503 4.9096 16.7092 4.84375 16.875 4.84375H18.7437C18.73 4.24875 18.6775 3.72625 18.4925 3.31625C18.3935 3.07785 18.2209 2.87729 18 2.74375C17.77 2.60625 17.42 2.5 16.875 2.5C16.7092 2.5 16.5503 2.43415 16.4331 2.31694C16.3158 2.19973 16.25 2.04076 16.25 1.875C16.25 1.70924 16.3158 1.55027 16.4331 1.43306C16.5503 1.31585 16.7092 1.25 16.875 1.25C17.58 1.24833 18.1683 1.38833 18.64 1.67C19.1187 1.955 19.4325 2.35875 19.6325 2.80375C20.0013 3.6225 20 4.635 20 5.405V9.37375C20.0002 9.45593 19.9841 9.53734 19.9528 9.61331C19.9214 9.68928 19.8754 9.75833 19.8174 9.8165C19.7593 9.87467 19.6904 9.92082 19.6145 9.95231C19.5386 9.98379 19.4572 10 19.375 10H18.75V15.625C18.75 16.1223 18.5525 16.5992 18.2008 16.9508C17.8492 17.3025 17.3723 17.5 16.875 17.5C16.3777 17.5 15.9008 17.3025 15.5492 16.9508C15.1975 16.5992 15 16.1223 15 15.625V15C15 14.6685 14.8683 14.3505 14.6339 14.1161C14.3995 13.8817 14.0815 13.75 13.75 13.75V18.75H14.375C14.5408 18.75 14.6997 18.8158 14.8169 18.9331C14.9342 19.0503 15 19.2092 15 19.375C15 19.5408 14.9342 19.6997 14.8169 19.8169C14.6997 19.9342 14.5408 20 14.375 20H0.625C0.45924 20 0.300269 19.9342 0.183058 19.8169C0.065848 19.6997 0 19.5408 0 19.375C0 19.2092 0.065848 19.0503 0.183058 18.9331C0.300269 18.8158 0.45924 18.75 0.625 18.75H1.25V2.5ZM12.5 2.5C12.5 2.16848 12.3683 1.85054 12.1339 1.61612C11.8995 1.3817 11.5815 1.25 11.25 1.25H3.75C3.41848 1.25 3.10054 1.3817 2.86612 1.61612C2.6317 1.85054 2.5 2.16848 2.5 2.5V18.75H12.5V2.5Z" fill="#101828"/>

</symbol>
</svg>